<svg xmlns="http://www.w3.org/2000/svg" width="38" height="38" viewBox="0 0 38 38">
  <defs>
    <style>
      .cls-1 {
        fill: #fff;
        fill-rule: evenodd;
      }
    </style>
  </defs>
  <path class="cls-1" d="M18.721,0.308A18.562,18.562,0,0,0,.293,19,18.562,18.562,0,0,0,18.721,37.692,18.562,18.562,0,0,0,37.15,19,18.562,18.562,0,0,0,18.721.308Zm0.406,28.3a0.919,0.919,0,0,1-1.538.7l-4.445-5.032H10.321A0.928,0.928,0,0,1,9.4,23.341V14.66a0.928,0.928,0,0,1,.922-0.935h2.823l4.445-5.032a0.92,0.92,0,0,1,1.538.7V28.61Z"/>
</svg>