<svg xmlns="http://www.w3.org/2000/svg" width="38" height="38" viewBox="0 0 38 38">
  <defs>
    <style>
      .cls-1 {
        fill: #fff;
        fill-rule: evenodd;
      }
    </style>
  </defs>
  <path class="cls-1" d="M18.972,0.308A18.562,18.562,0,0,0,.543,19,18.561,18.561,0,0,0,18.972,37.692,18.562,18.562,0,0,0,37.4,19,18.562,18.562,0,0,0,18.972.308Zm0.406,28.3a0.919,0.919,0,0,1-1.538.7l-4.445-5.032H10.571a0.928,0.928,0,0,1-.921-0.934V14.66a0.928,0.928,0,0,1,.921-0.935h2.823l4.445-5.032a0.92,0.92,0,0,1,1.538.7V28.61Zm3.394-4.68a1.128,1.128,0,0,1-.86-0.4,1.165,1.165,0,0,1,.115-1.627,3.734,3.734,0,0,0,0-5.808,1.165,1.165,0,0,1-.115-1.627,1.127,1.127,0,0,1,1.6-.117,6.059,6.059,0,0,1,0,9.3A1.126,1.126,0,0,1,22.771,23.93Zm3.576,2.207a1.126,1.126,0,0,1-1.6-.117,1.165,1.165,0,0,1,.115-1.627,6.958,6.958,0,0,0,0-10.784,1.165,1.165,0,0,1-.115-1.627,1.126,1.126,0,0,1,1.6-.117A9.284,9.284,0,0,1,26.348,26.137Z"/>
</svg>